<?xml version="1.0" encoding="utf-8"?>
<!-- Generator: Adobe Illustrator 25.3.1, SVG Export Plug-In . SVG Version: 6.00 Build 0)  -->
<svg version="1.1" id="Layer_1" xmlns="http://www.w3.org/2000/svg" xmlns:xlink="http://www.w3.org/1999/xlink" x="0px" y="0px"
	 viewBox="0 0 50 50" style="enable-background:new 0 0 50 50;" xml:space="preserve">
<style type="text/css">
	.st0{fill:#170463;}
</style>
<g>
	<path class="st0" d="M28.9,7.4c2.1,2,4,3.9,6,5.9c-1.9,1.9-3.7,3.8-5.5,5.6c-4.6,4.7-9.2,9.3-13.8,14c-1.9,2-5,1.4-6.3-0.5
		c-1.3-1.7-1.1-4,0.5-5.6c2.1-2.1,4.2-4.2,6.2-6.3c4.2-4.2,8.3-8.4,12.5-12.6C28.7,7.9,28.8,7.6,28.9,7.4z"/>
	<path class="st0" d="M36.2,15c2.1,1.9,4.1,3.7,6.1,5.6c-1.6,1.6-3.1,3.1-4.5,4.6c-5,5-9.9,10-14.9,15.1c-0.3,0.3-0.6,0.5-0.9,0.7
		c-1.6,1.2-4.2,0.2-5.2-0.9c-1.4-1.6-1.5-3.9-0.1-5.5c1.5-1.7,3.1-3.2,4.7-4.8c4.9-4.9,9.7-9.8,14.6-14.7C36.2,15.1,36.3,15,36.2,15
		z"/>
	<path class="st0" d="M33.3,3.2C36.2,0.6,42,0,45.9,3.8c3.9,3.7,3.8,9.8,0.9,13.1C42.3,12.3,37.8,7.8,33.3,3.2z"/>
	<path class="st0" d="M40.9,25.3c-1.2,2.5-2.4,5-3.6,7.4c-2.2,4.7-4.6,9.3-6.7,14c-1.1,2.5-4.5,2.6-6.1,1.2
		c-1.8-1.7-1.9-4.3-0.2-6.1c2.7-2.8,5.4-5.5,8.1-8.3c2.6-2.6,5.2-5.3,7.8-7.9c0.1-0.2,0.3-0.3,0.5-0.4
		C40.8,25.3,40.9,25.3,40.9,25.3z"/>
	<path class="st0" d="M23.8,9.8c-1.2,1.1-2.4,2.2-3.5,3.4C16.4,17.1,12.5,21,8.7,25c-1.4,1.4-2.9,2.1-4.9,1.5
		c-2.5-0.9-3.5-4.2-1.9-6.3c0.2-0.2,0.5-0.5,0.7-0.6c6.9-3.3,13.9-6.6,20.8-9.9c0.1,0,0.1,0,0.2-0.1C23.7,9.7,23.7,9.7,23.8,9.8z"/>
	<path class="st0" d="M45.4,18.6c-0.3,0.2-0.6,0.4-0.9,0.7C40,14.7,35.5,10.2,31,5.5c0.3-0.3,0.5-0.5,0.8-0.8
		C36.3,9.3,40.8,13.9,45.4,18.6z"/>
</g>
</svg>
