<?xml version="1.0" encoding="utf-8"?>
<!-- Generator: Adobe Illustrator 25.3.1, SVG Export Plug-In . SVG Version: 6.00 Build 0)  -->
<svg version="1.1" id="Layer_1" xmlns="http://www.w3.org/2000/svg" xmlns:xlink="http://www.w3.org/1999/xlink" x="0px" y="0px"
	 viewBox="0 0 50 50" style="enable-background:new 0 0 50 50;" xml:space="preserve">
<style type="text/css">
	.st0{fill:#170463;}
</style>
<g>
	<path class="st0" d="M26.6,29.3c-2-2-4.1-4.1-6.1-6.1c0.6-0.7,1.2-1.4,1.8-2.1c3.1-3.5,6.2-7,9.3-10.5C33.7,8.1,36,5.5,38.2,3
		c2.2-2.4,6.1-2.3,8.2,0.2c0.5,0.6,1.1,1.2,1.5,1.9c1.1,2,0.6,4.7-1.2,6.2c-4.6,4.1-9.2,8.2-13.9,12.4c-2,1.8-4,3.6-6,5.3
		C26.8,29.1,26.7,29.2,26.6,29.3z"/>
	<path class="st0" d="M35.7,29.2c0-3.6,3-6.6,6.6-6.6c3.7,0,6.7,3,6.7,6.7c0,3.7-3,6.7-6.7,6.7C38.6,35.9,35.7,33,35.7,29.2z"/>
	<path class="st0" d="M8.1,37.3c3.7-4.1,7.4-8.4,11.2-12.6c2,2,3.9,3.9,5.9,5.9c-4.2,3.7-8.5,7.4-12.7,11.1
		C11,40.3,9.5,38.8,8.1,37.3z"/>
	<path class="st0" d="M6.1,48.7c-0.5,0-1.2-0.2-1.6-0.7c-0.9-0.9-1.8-1.8-2.7-2.7c-0.8-0.8-0.9-2.1-0.4-3.1c0.6-1.1,1.9-1.7,3-1.4
		c0.2,0,0.4,0.2,0.5,0.3c1.2,1.2,2.5,2.5,3.7,3.8c0.1,0.1,0.3,0.4,0.3,0.6C9.1,47.2,7.9,48.7,6.1,48.7z"/>
	<path class="st0" d="M7,38.7c1.5,1.4,2.9,2.7,4.3,4.1c-0.4,0.3-0.8,0.6-1.2,1c-1.4-1.3-2.7-2.6-4.1-3.9C6.3,39.4,6.7,39,7,38.7z"/>
</g>
</svg>
