<?xml version="1.0" encoding="utf-8"?>
<!-- Generator: Adobe Illustrator 25.3.1, SVG Export Plug-In . SVG Version: 6.00 Build 0)  -->
<svg version="1.1" id="Layer_1" xmlns="http://www.w3.org/2000/svg" xmlns:xlink="http://www.w3.org/1999/xlink" x="0px" y="0px"
	 viewBox="0 0 50 50" style="enable-background:new 0 0 50 50;" xml:space="preserve">
<style type="text/css">
	.st0{fill:#170463;}
</style>
<g>
	<path class="st0" d="M3.7,19.3c-0.7,0-1.4,0-2,0c-0.6,0-0.9-0.3-0.9-0.9c0-0.9,0-1.8,0-2.7c0-0.7,0.2-1,1-1c4.1,0,8.1,0,12.2,0
		c5.4,0,10.8,0,16.2,0c0.2,0,0.3,0,0.5,0c0.4,0,0.7,0.3,0.7,0.8c0,0.2,0,0.4,0,0.6c1.7,0,3.3,0,5,0c0-0.2,0-0.4,0-0.6c2,0,4,0,6.1,0
		c0-4.5,0-9,0-13.5c2.3,0,4.6,0,6.9,0c0,15.3,0,30.7,0,46c-2.3,0-4.6,0-6.9,0c0-9.9,0-19.8,0-29.8c-2,0-4,0-6.1,0
		c0-0.2,0-0.3-0.1-0.5c-1.8,0-3.6,0-5.4,0c0,0.2,0,0.4,0,0.6c0,0.6-0.3,0.9-0.9,0.9c-0.6,0-1.3,0-1.9,0c-0.2,0-0.3,0.1-0.3,0.3
		c-0.4,3.5-0.8,7-1.2,10.5c-0.4,3.6-0.9,7.2-1.3,10.7c-0.1,1.1-0.3,2.2-0.4,3.3c-0.1,0.5-0.4,0.8-0.9,0.7c-0.4-0.1-0.7-0.4-0.6-0.9
		c0.1-0.7,0.2-1.4,0.3-2.1c0-0.1,0-0.2-0.1-0.3c-1.1-0.9-2.1-1.9-3.2-2.8c-0.5,0.5-1,1.1-1.5,1.6c-0.8,0.9-1.6,1.8-2.4,2.7
		c-0.3,0.4-0.8,0.4-1.2,0c-1.2-1.3-2.4-2.6-3.6-3.9c-0.1-0.1-0.2-0.3-0.4-0.4c-0.7,0.6-1.3,1.1-1.9,1.7c-0.4,0.3-0.8,0.7-1.2,1
		C7.9,41.6,7.9,41.8,8,42c0.1,0.7,0.2,1.3,0.3,2C8.3,44.6,8,44.9,7.6,45c-0.5,0.1-0.8-0.2-0.9-0.7c-0.2-1.5-0.4-3.1-0.5-4.6
		c-0.3-2.1-0.5-4.3-0.8-6.4c-0.3-2.3-0.5-4.6-0.8-6.9c-0.3-2.3-0.5-4.5-0.8-6.8C3.7,19.5,3.7,19.4,3.7,19.3z M2.2,17.7
		c9.2,0,18.3,0,27.5,0c0-0.5,0-1,0-1.5c-9.1,0-18.3,0-27.4,0C2.2,16.7,2.2,17.2,2.2,17.7z M19.9,29.3c-0.1-0.1-0.1-0.1-0.2-0.1
		c-1.2-0.8-2.4-1.6-3.7-2.3c-0.1-0.1-0.3,0-0.4,0.1c-1.1,0.7-2.2,1.5-3.3,2.2c-0.1,0.1-0.2,0.2-0.3,0.2c1.3,1.2,2.6,2.3,3.9,3.5
		C17.2,31.6,18.5,30.4,19.9,29.3z M7.4,32.2c1.4,1.5,2.7,2.9,4.1,4.4c1.1-0.9,2.2-1.9,3.2-2.8c-1.4-1.2-2.8-2.5-4.2-3.7
		C9.5,30.8,8.5,31.5,7.4,32.2z M17.1,33.7c1.1,0.9,2.2,1.9,3.2,2.8c1.4-1.5,2.7-2.9,4.1-4.4c-1.1-0.7-2.1-1.3-3.1-2
		C19.8,31.3,18.5,32.5,17.1,33.7z M19.3,37.6c-1.1-1-2.3-1.9-3.4-2.9c-1.1,1-2.2,1.9-3.3,2.9c1.1,1.3,2.2,2.5,3.3,3.7
		C17.1,40.1,18.2,38.9,19.3,37.6z M6.6,24.6c0.1,0.1,0.1,0.1,0.1,0.1c1.3,1.1,2.5,2.2,3.8,3.3c0.1,0.1,0.2,0.1,0.4,0
		c1-0.6,2-1.2,2.9-1.9c0.2-0.1,0.4-0.3,0.7-0.4c-1.4-0.9-2.7-1.7-4-2.5c-0.3-0.2-0.6-0.3-1-0.1C8.6,23.7,7.6,24.1,6.6,24.6z
		 M25.2,24.6c-0.1,0-0.1-0.1-0.1-0.1c-1.1-0.5-2.2-1-3.3-1.5c-0.1,0-0.3,0-0.4,0.1c-0.7,0.4-1.3,0.9-2,1.3c-0.7,0.5-1.4,0.9-2.1,1.4
		c0,0,0,0.1,0.1,0.1c1.2,0.8,2.3,1.5,3.5,2.3c0.2,0.1,0.3,0,0.4-0.1c1-0.9,2-1.7,3-2.6C24.5,25.2,24.9,24.9,25.2,24.6z M11.7,22.2
		c0.1,0.1,0.1,0.1,0.1,0.1c1.3,0.8,2.5,1.7,3.8,2.5c0.1,0,0.3,0,0.3,0c1.2-0.8,2.4-1.6,3.6-2.3c0.1-0.1,0.2-0.2,0.4-0.3
		c-1.4-0.6-2.7-1.2-4-1.8c-0.1,0-0.3,0-0.4,0c-0.5,0.2-1,0.4-1.5,0.7C13.4,21.4,12.6,21.8,11.7,22.2z M21.5,37.6
		c0.9,0.7,1.7,1.4,2.6,2.2c0.2-2,0.5-3.9,0.7-5.8c0,0,0,0-0.1,0C23.6,35.2,22.6,36.4,21.5,37.6z M10.3,37.5
		c-1.1-1.2-2.1-2.4-3.2-3.5c0,0,0,0-0.1,0c0.2,1.9,0.4,3.8,0.6,5.7C8.6,39,9.5,38.2,10.3,37.5z M17.9,19.4c0,0,0,0.1,0,0.1
		c1.2,0.5,2.4,1.1,3.5,1.6c0.2,0.1,0.4,0.1,0.5,0c0.9-0.6,1.7-1.1,2.6-1.7c0.1-0.1,0.2-0.1,0.3-0.2c0,0,0,0,0-0.1
		c-0.1,0-0.2,0-0.4,0c-1.9,0-3.7,0-5.6,0C18.5,19.2,18.2,19.3,17.9,19.4z M7.3,19.2C7.3,19.2,7.3,19.2,7.3,19.2c1,0.7,2,1.4,3,2
		c0.1,0,0.2,0,0.3,0c0.5-0.2,0.9-0.4,1.4-0.6c0.7-0.3,1.4-0.7,2.2-1c0,0,0-0.1,0-0.1c-0.3-0.1-0.6-0.2-0.9-0.2c-1.9,0-3.8,0-5.7,0
		C7.5,19.2,7.4,19.2,7.3,19.2z M25.1,30.8c0.2-1.5,0.4-3,0.6-4.5c-1.1,1-2.2,1.9-3.2,2.8C23.3,29.7,24.1,30.2,25.1,30.8z M6.7,30.8
		c0.9-0.6,1.8-1.2,2.7-1.7c-1.1-0.9-2.1-1.8-3.2-2.8C6.3,27.8,6.5,29.3,6.7,30.8z M8.6,22.1c-1.1-0.7-2.1-1.5-3.2-2.2
		c0.1,1.2,0.2,2.3,0.4,3.5C6.7,22.9,7.6,22.5,8.6,22.1z M26.4,19.9c-1.1,0.7-2.2,1.4-3.2,2.1c1,0.4,1.9,0.9,2.8,1.3
		C26.1,22.2,26.2,21.1,26.4,19.9z"/>
</g>
</svg>
