<?xml version="1.0" encoding="utf-8"?>
<!-- Generator: Adobe Illustrator 25.3.1, SVG Export Plug-In . SVG Version: 6.00 Build 0)  -->
<svg version="1.1" id="Layer_1" xmlns="http://www.w3.org/2000/svg" xmlns:xlink="http://www.w3.org/1999/xlink" x="0px" y="0px"
	 viewBox="0 0 50 50" style="enable-background:new 0 0 50 50;" xml:space="preserve">
<style type="text/css">
	.st0{fill:#170463;}
</style>
<g>
	<path class="st0" d="M18.8,37.6c0-5.2,3.4-9.8,8.4-11.2c3.8-1.1,7.3-0.2,10.3,2.4c2.4,2,3.7,4.6,4,7.6c0.4,3.8-0.8,7-3.5,9.7
		c-2.1,2.1-4.8,3.2-7.8,3.2c-4.4,0-7.8-2.1-10-5.9C19.2,41.6,18.8,39.7,18.8,37.6z M28,30.9c-0.7,0-1.1,0.4-1.1,1
		c0,0.6,0.6,1.1,1.1,1.1c0.6,0,1.1-0.6,1.1-1.1C29.2,31.4,28.7,30.9,28,30.9z M30.2,35.2c-0.6,0-0.9,0.4-0.9,0.9
		c0,0.8,0.3,1.2,1,1.2c0.6,0,1.1-0.4,1.1-1C31.3,35.5,30.9,35.2,30.2,35.2z M31.4,31.9c0,0.7,0.4,1.2,1,1.2c0.6,0,1.1-0.5,1.1-1.1
		c0-0.6-0.4-1-1.2-1C31.7,30.9,31.4,31.3,31.4,31.9z"/>
	<path class="st0" d="M23.6,25.6c-1.2,0.7-2.2,1.4-3.1,2.4c-2.1,2.2-3.3,4.8-3.7,7.7c-0.1,0.6-0.1,1.1-0.1,1.7
		c0.1,3.9,1.4,7.4,4.2,10.2c0,0,0,0,0,0c0.6,0.4,0.6,0.8,0.3,1.4c-0.1,0.2-0.2,0.3-0.4,0.3c-2.4,0-4.8,0-7.2,0c-0.3,0-0.5,0-0.8,0
		c-0.2,0-0.3-0.1-0.4-0.3c-1-1.8-1.9-3.7-2.5-5.7c-1-3.2-1.6-6.5-1.4-9.9c0.2-4,1.1-7.8,2.7-11.4c0.1-0.2,0.2-0.2,0.4-0.2
		c3.4,0,6.8,0,10.2,0c0.1,0,0.3,0.1,0.3,0.2C22.7,23.1,23.2,24.3,23.6,25.6z"/>
	<path class="st0" d="M12.3,13.3c-0.2-1.7-0.9-3.2-1.4-4.8c-0.2-0.7-0.4-1.5-0.5-2.2C10.4,4.8,11,3.5,12,2.5
		c1.2-1.3,2.8-1.9,4.6-1.8c1,0.1,2,0.2,2.9,0.5c2.2,0.9,3.6,3.1,3.3,5.4c-0.1,1-0.4,2-0.7,3c-0.4,1.2-0.7,2.5-1.1,3.8
		C18.2,13.3,15.3,13.3,12.3,13.3z"/>
	<path class="st0" d="M20.9,19.6c-2.8,0-5.5,0-8.3,0c0-1.4,0-2.7,0-4.1c2.7,0,5.5,0,8.3,0C20.9,16.9,20.9,18.3,20.9,19.6z"/>
</g>
</svg>
