<?xml version="1.0" encoding="utf-8"?>
<!-- Generator: Adobe Illustrator 25.3.1, SVG Export Plug-In . SVG Version: 6.00 Build 0)  -->
<svg version="1.1" id="Layer_1" xmlns="http://www.w3.org/2000/svg" xmlns:xlink="http://www.w3.org/1999/xlink" x="0px" y="0px"
	 viewBox="0 0 50 50" style="enable-background:new 0 0 50 50;" xml:space="preserve">
<style type="text/css">
	.st0{fill:#170463;}
</style>
<g>
	<path class="st0" d="M41.1,17.1c0.2-0.5,0.5-1,0.7-1.4c0.2-0.4,0.5-0.7,0.8-1c0.6-0.5,1.3-0.6,2-0.2c0.6,0.4,1.1,0.9,1.4,1.5
		c0.1,0.1,0.1,0.3,0.1,0.4c0,1.1,0,2.1,0,3.2c0,0.6,0.1,1.2,0.1,1.8c0,2.7-1,5.1-2.3,7.3c-1.2,1.9-2.8,3.6-4.5,5.1
		c-0.2,0.1-0.3,0.4-0.4,0.6c-0.5,1.7-1.4,3.2-2.5,4.5c-0.2,0.2-0.3,0.4-0.3,0.7c0,0.6,0,1.1,0,1.7c-6.7,0-13.4,0-20.2,0
		c0-0.4,0-0.7,0-1.1c0-0.2-0.1-0.4-0.3-0.5c-4-2.4-7.2-5.5-9.5-9.6c-2-3.6-2.9-7.5-2.8-11.6c0.1-2.7,0.6-5.2,1.7-7.7
		c1.4-3,3.6-5.4,6.5-7c3.3-1.9,6.9-2.6,10.6-2.7c2.5,0,5,0.2,7.3,1c5.3,1.7,8.7,5.3,10.4,10.6c0.4,1.4,0.7,2.8,0.8,4.2
		C41,16.8,41.1,16.9,41.1,17.1C41.1,17,41.1,17.1,41.1,17.1z"/>
	<path class="st0" d="M36.3,44.3c0,1.6,0,3.1,0,4.7c-6.7,0-13.4,0-20.1,0c0-1.5,0-3.1,0-4.7C22.9,44.3,29.6,44.3,36.3,44.3z"/>
</g>
</svg>
