<?xml version="1.0" encoding="utf-8"?>
<!-- Generator: Adobe Illustrator 25.3.1, SVG Export Plug-In . SVG Version: 6.00 Build 0)  -->
<svg version="1.1" id="Layer_1" xmlns="http://www.w3.org/2000/svg" xmlns:xlink="http://www.w3.org/1999/xlink" x="0px" y="0px"
	 viewBox="0 0 50 50" style="enable-background:new 0 0 50 50;" xml:space="preserve">
<style type="text/css">
	.st0{fill:#170463;}
</style>
<g>
	<path class="st0" d="M22.9,30c-1-0.6-2-1.2-2.9-1.8c-1.7-1.1-3.4-2.2-5-3.3c-1.9-1.3-2.4-3.8-1.2-5.9c0.5-0.9,1.2-1.6,2.1-2.2
		c3.4-2.2,6.9-4.3,10.3-6.5c2-1.3,4.5-0.7,5.8,1.3c0.4,0.6,0.7,1.1,1,1.7c0.6,0.9,0.5,1.9,0.3,2.9c-0.2,1.3-0.3,2.6-0.5,3.9
		c0.7,0.1,1.2,0.2,1.8,0.3c1.6,0.3,3.2,0.5,4.8,0.8c1.4,0.3,2.2,1.5,2,2.9c-0.2,1.3-1.5,2.1-2.8,1.9c-2.8-0.5-5.6-0.9-8.5-1.4
		c-1.6-0.3-2.5-1.3-2.3-2.9c0-0.1,0-0.3,0-0.5c-1.3,0.8-2.5,1.5-3.7,2.3c0.8,0.5,1.6,1,2.4,1.4c0.9,0.5,1.7,1,2.6,1.5
		c1.8,1.1,2.1,3.2,0.7,4.7c-3,3.2-6.1,6.3-9.1,9.5c-1.2,1.2-3,1.3-4.2,0.2c-1.2-1.2-1.3-2.9-0.1-4.2c2-2.1,4-4.1,6-6.2
		C22.6,30.2,22.7,30.1,22.9,30z"/>
	<path class="st0" d="M39.4,45.8c-5.3,0-9.7-4.4-9.7-9.8c0-5.3,4.5-9.7,9.7-9.7c5.4,0,9.7,4.4,9.7,9.7
		C49.2,41.5,44.8,45.8,39.4,45.8z M39.5,29.3c-3.8,0-6.8,3-6.8,6.9c0,3.7,3.1,6.7,6.8,6.7c3.7,0,6.8-3,6.8-6.8
		C46.3,32.3,43.3,29.3,39.5,29.3z"/>
	<path class="st0" d="M16.7,33.3c-1.9-4.1-6.6-5-9.8-3.1c-3.3,2-4.3,6.2-2.2,9.5c2,3.1,6.3,4.3,9.8,1.8c0.3,0.3,0.7,0.7,1.1,1
		c0.4,0.3,0.8,0.5,1.3,0.8c-0.4,0.3-0.7,0.6-1.1,0.9c-5.8,3.9-13.8,0.5-14.9-6.4c-1-6,3.6-11.4,9.6-11.4c3.5,0.1,6.2,1.6,8.1,4.6
		c0.2,0.3,0.2,0.4-0.1,0.7C18,32.2,17.3,32.8,16.7,33.3z"/>
	<path class="st0" d="M37.7,4.2c2.7,0,4.9,2.1,4.9,4.8c0,2.7-2.2,4.9-4.8,4.9c-2.7,0-4.9-2.2-4.9-4.9C32.9,6.3,35,4.2,37.7,4.2z"/>
</g>
</svg>
