<?xml version="1.0" encoding="utf-8"?>
<!-- Generator: Adobe Illustrator 25.3.1, SVG Export Plug-In . SVG Version: 6.00 Build 0)  -->
<svg version="1.1" id="Layer_1" xmlns="http://www.w3.org/2000/svg" xmlns:xlink="http://www.w3.org/1999/xlink" x="0px" y="0px"
	 viewBox="0 0 50 50" style="enable-background:new 0 0 50 50;" xml:space="preserve">
<style type="text/css">
	.st0{fill:#170463;}
</style>
<g>
	<path class="st0" d="M38.4,44.6c0.4-0.6,0.8-1.2,1.3-1.8c0.5-0.8,1.3-1.2,2.2-1.4c1.3-0.2,2.6,0.6,3.1,1.8c0.5,1.2,0.1,2.8-1,3.5
		c-1.2,0.8-2.4,1.5-3.7,2.2c-0.9,0.5-1.9,0.1-2.5-0.8c-1.8-3-3.6-6-5.4-9c-2.6-4.3-5.1-8.5-7.7-12.8c-0.1-0.2-0.2-0.3-0.5-0.3
		c-0.6,0.1-1.1-0.2-1.5-0.7c-0.9-1.1-1.8-2.1-2.7-3.2c-1.2-1.4-2.4-2.8-3.6-4.3c-0.1-0.1-0.1-0.2-0.2-0.3c-0.1,0.1-0.2,0.2-0.2,0.3
		c-1.8,2.6-3.1,5.5-3.6,8.6c0,0.2,0,0.4,0.1,0.5c1.3,1.7,2.6,3.4,3.9,5.2c0.7,0.9,0.9,1.8,0.5,2.9c-1.3,4.3-2.5,8.7-3.8,13
		c-0.3,1.1-1.4,1.9-2.6,1.9c-1.1,0-2.1-0.8-2.4-1.9c-0.1-0.6,0-1.2,0.1-1.8c0.6-3.6,1.2-7.2,1.8-10.8c0-0.2,0-0.4-0.2-0.5
		c-2.3-2.4-4.7-4.8-7-7.3c-1-1-1.4-2.3-1.4-3.7c-0.1-1.3,0.3-2.5,0.7-3.6C3.4,17,5,13.7,7.3,10.8c0.9-1.2,2-2.3,3.3-3.1
		c1-0.6,2-1.1,3.2-1c1.3,0.1,2.4,0.7,3.2,1.8c1.4,1.8,2.7,3.7,3.9,5.7c1.7,2.7,3.3,5.4,5,8.2c0.5,0.8,0.8,1.5,0.6,2.5
		c0,0.1,0.1,0.3,0.2,0.4c3.3,5.5,6.7,11.1,10,16.6c0.5,0.9,1,1.7,1.6,2.6C38.3,44.4,38.3,44.5,38.4,44.6z"/>
	<path class="st0" d="M21.6,0c2.8,0,5,2.2,5,5c0,2.7-2.3,4.9-5.1,4.9c-2.8,0-5.1-2.3-5-5C16.5,2.2,18.8,0,21.6,0z"/>
	<path class="st0" d="M45.3,38.1c-1.8,0-3.3-1.4-3.3-3.2c0-1.8,1.5-3.2,3.3-3.2c1.8,0,3.3,1.5,3.3,3.2
		C48.6,36.6,47.1,38.1,45.3,38.1z M46.6,35.3c0,0.3,0.2,0.5,0.5,0.5c0.3,0,0.4-0.1,0.5-0.4C47.1,35.6,47,35.6,46.6,35.3z M46.1,36.1
		c0,0-0.1-0.1-0.1-0.1c-0.3,0.3-0.7,0.2-1,0.1c0.2,0.2,0.4,0.3,0.5,0.3C45.7,36.3,45.9,36.1,46.1,36.1z M45,34.8
		c0.3,0.5,0.7,0.5,1,0C45.7,35,45.3,35,45,34.8z"/>
	<path class="st0" d="M45.3,41.4c-0.1-0.6-0.1-1.2-0.2-1.8c0-0.4-0.1-0.7-0.4-1c-0.1-0.1-0.2-0.2-0.3-0.3c0.6,0,1.3,0,1.9,0
		c0,0,0,0,0,0c-0.8,0.6-0.7,1.5-0.8,2.3c0,0.3-0.1,0.5-0.1,0.8C45.4,41.4,45.3,41.4,45.3,41.4z"/>
</g>
</svg>
