<?xml version="1.0" encoding="utf-8"?>
<!-- Generator: Adobe Illustrator 25.3.1, SVG Export Plug-In . SVG Version: 6.00 Build 0)  -->
<svg version="1.1" id="Layer_1" xmlns="http://www.w3.org/2000/svg" xmlns:xlink="http://www.w3.org/1999/xlink" x="0px" y="0px"
	 viewBox="0 0 50 50" style="enable-background:new 0 0 50 50;" xml:space="preserve">
<style type="text/css">
	.st0{fill:#170463;}
</style>
<g>
	<path class="st0" d="M22.1,23.6c3-3.1,5.9-6.1,8.7-8.9c2.7-2.7,5.5-5.4,8.2-8.1c1.2-1.2,3.1-1.3,4-0.3c1,1,0.8,2.6-0.4,3.9
		C37.6,15.5,32.4,20.8,27.3,26c-0.4,0.4-0.7,0.8-1,1.1c3.8,3.7,7.6,7.4,11.4,11.1c-0.1,0.1-0.1,0.1-0.2,0.2C37.3,37.6,37,36.8,37,36
		c-0.1-1.5,0.7-2.6,1.9-3.1c1.4-0.5,2.3-0.1,3.3,1.3c1.7,2.4,1.8,5.1,0.3,7.2c-1.8,2.5-4.3,3.5-7,2.6c-1-0.3-1.9-1-2.7-1.7
		c-3.6-3.7-7.2-7.5-10.9-11.4c-1.4,1.4-2.7,2.8-4.1,4.1c-2.4,2.5-4.8,5-7.3,7.4C8,45.1,4.4,45,1.9,42.3c-2.4-2.6-2.3-6.4,0.3-8.8
		c1-0.9,2.6-1.1,3.6-0.3c1.5,1,2,2.5,1.3,3.9c-0.2,0.4-0.4,0.8-0.7,1.2c0.2,0.2,0.4,0.4,0.6,0.6c3.5-3.9,7-7.8,10.6-11.9
		c-1.2-1.2-2.5-2.7-4-4.2C10,19,6.2,15.1,2.4,11.3C2,10.9,1.7,10.5,1.3,10C0.2,8.7,0.1,7.2,1.1,6.3c1-0.9,2.8-0.8,4,0.3
		c2.9,2.8,5.7,5.7,8.6,8.5C16.4,17.8,19.1,20.6,22.1,23.6z"/>
	<path class="st0" d="M49.8,26.4c0,1.9-1.5,3.5-3.4,3.6c-2,0.1-3.6-1.5-3.7-3.5c-0.1-2,1.5-3.6,3.5-3.6
		C48.3,22.9,49.8,24.4,49.8,26.4z"/>
</g>
</svg>
