<?xml version="1.0" encoding="utf-8"?>
<!-- Generator: Adobe Illustrator 25.3.1, SVG Export Plug-In . SVG Version: 6.00 Build 0)  -->
<svg version="1.1" id="Layer_1" xmlns="http://www.w3.org/2000/svg" xmlns:xlink="http://www.w3.org/1999/xlink" x="0px" y="0px"
	 viewBox="0 0 50 50" style="enable-background:new 0 0 50 50;" xml:space="preserve">
<style type="text/css">
	.st0{fill:#170463;}
</style>
<g>
	<path class="st0" d="M25,47.5c-3.9,0-7.8,0-11.7,0c-0.8,0-1-0.2-0.9-1.1c0.7-5,1.4-10,2.1-14.9c0.1-1,0.3-2,0.4-3
		c0.1-0.4,0.3-0.6,0.7-0.6c2,0,4,0,5.9,0c0.6,0,0.9,0.4,0.6,1.1c-0.7,1.4-1.4,2.7-2,4.1c-0.5,1.1-1.1,2.2-1.6,3.3
		c-0.3,0.6-0.2,0.9,0.4,1.2c0.3,0.2,0.6,0.3,1,0.5c0.6,0.3,0.9,0.2,1.2-0.4c1.1-2.2,2.2-4.4,3.3-6.5c0.1-0.2,0.4-0.5,0.7-0.5
		c0.2,0,0.5,0.3,0.7,0.5c1.1,2.1,2.2,4.3,3.2,6.5c0.3,0.7,0.6,0.8,1.3,0.4c0.3-0.2,0.6-0.3,0.9-0.5c0.6-0.3,0.7-0.6,0.4-1.2
		c-1.1-2.3-2.3-4.6-3.4-6.9c-0.6-1.3-0.5-1.5,0.9-1.5c1.7,0,3.4,0,5.1,0c0.8,0,0.9,0.1,1,0.9c0.5,3.3,0.9,6.6,1.4,9.9
		c0.4,2.5,0.7,5.1,1.1,7.6c0.2,1.1,0,1.2-1.1,1.2C32.7,47.5,28.8,47.5,25,47.5z"/>
	<path class="st0" d="M6.8,33.4c-1.4,0-2.7,0-4.1,0c-0.8,0-1-0.2-0.9-1c0.3-2.6,0.7-5.2,1.1-7.8c0.4-3.2,0.9-6.4,1.3-9.6
		c0.1-0.8,0.2-1.7,0.3-2.5c0-0.2,0.1-0.4,0.3-0.6c1.4-2.2,2.8-4.3,4.2-6.5c0.2-0.2,0.6-0.5,0.8-0.4c0.2,0,0.5,0.4,0.5,0.7
		c0.6,5,1.2,9.9,1.8,14.9c0.2,1.8,0.6,3.6,0.6,5.4c0.1,1.2-0.2,2.5-0.3,3.7c-0.1,1-0.3,2-0.4,2.9c-0.1,0.8-0.3,0.9-1.1,0.9
		C9.6,33.4,8.2,33.4,6.8,33.4z"/>
	<path class="st0" d="M43.2,33.4c-1.4,0-2.8,0-4.2,0c-0.7,0-0.9-0.2-1-0.9c-0.2-1.5-0.4-3-0.7-4.4c-0.3-1.5-0.1-3,0.1-4.5
		c0.5-3.8,1-7.6,1.4-11.4c0.3-2.2,0.5-4.4,0.8-6.7c0-0.3,0.3-0.6,0.5-0.7C40.5,4.8,40.9,5,41,5.2c1.4,2,2.7,4,4.1,6.1
		c0.2,0.2,0.2,0.6,0.3,0.9c0.7,4.6,1.3,9.2,2,13.9c0.3,2.1,0.6,4.1,0.9,6.2c0.1,1,0,1.2-1,1.2C45.9,33.4,44.5,33.4,43.2,33.4z"/>
	<path class="st0" d="M28.6,25c-1.7,0-3.5,0-5.2,0c-1.1,0-1.3-0.4-0.8-1.4c1.6-3,3.3-5.9,4.9-8.9c2.2-3.9,4.3-7.8,6.4-11.6
		c0.2-0.4,0.5-0.6,1-0.6c0.6,0,1.3,0,1.9,0c0.7,0,0.9,0.2,0.8,0.9c-0.2,1.9-0.5,3.8-0.7,5.8c-0.4,3.5-0.9,7-1.3,10.5
		c-0.2,1.5-0.4,2.9-0.6,4.4c-0.1,0.7-0.2,0.9-1,0.9C32.2,25,30.4,25,28.6,25z"/>
	<path class="st0" d="M16.9,25c-0.4,0-0.8,0-1.2,0c-0.4,0-0.7-0.2-0.8-0.7c-0.5-4-1-7.9-1.5-11.9c-0.4-2.9-0.7-5.8-1.1-8.7
		c-0.1-0.9,0-1.1,1-1.1c0.6,0,1.2,0,1.8,0c0.4,0,0.6,0.1,0.8,0.5c2.2,4.5,4.5,9,6.7,13.6c0.1,0.3,0.1,0.7-0.1,1
		c-1.2,2.3-2.5,4.6-3.8,6.9c-0.2,0.4-0.5,0.6-0.9,0.5C17.6,25,17.3,25,16.9,25z"/>
	<path class="st0" d="M24.9,2.5c1.6,0,3.1,0,4.7,0c0.9,0,1.2,0.4,0.7,1.2c-1.6,3-3.3,5.9-4.9,8.9c-0.2,0.3-0.5,0.6-0.8,0.6
		c-0.3,0-0.6-0.4-0.7-0.7c-1.5-2.9-3-5.9-4.4-8.9c-0.4-0.8-0.2-1.2,0.7-1.2C21.8,2.5,23.4,2.5,24.9,2.5z"/>
</g>
</svg>
