<?xml version="1.0" encoding="utf-8"?>
<!-- Generator: Adobe Illustrator 25.3.1, SVG Export Plug-In . SVG Version: 6.00 Build 0)  -->
<svg version="1.1" id="Layer_1" xmlns="http://www.w3.org/2000/svg" xmlns:xlink="http://www.w3.org/1999/xlink" x="0px" y="0px"
	 viewBox="0 0 50 50" style="enable-background:new 0 0 50 50;" xml:space="preserve">
<style type="text/css">
	.st0{fill:#170463;}
</style>
<g>
	<path class="st0" d="M21.7,25.2c-5.4,0-10.9,0-16.3,0c-0.4,0-0.6-0.1-0.7-0.5c-0.3-1.4-0.6-2.9-0.9-4.3c-0.2-0.8,0.1-1.5,0.2-2.3
		c0.2-1.4,0.3-2.8,0.7-4.2C6.3,7.3,10.4,3.1,17,1.5c4.3-1,8.6-0.9,12.7,1c5.7,2.6,9,7,9.8,13.2c0.1,1,0,2,0,3c0,0.6,0,1.1,0,1.7
		c0,1.5-0.3,2.9-0.8,4.3c-0.1,0.4-0.3,0.4-0.6,0.4C32.7,25.2,27.2,25.2,21.7,25.2z"/>
	<path class="st0" d="M5.8,27.3c10.8,0,21.5,0,32.3,0c-0.1,0.2-0.1,0.3-0.2,0.4c-2.4,4-5.9,6.5-10.3,7.8c-0.7,0.2-0.6,0-0.6,0.8
		c0.2,3.3,0.4,6.6,0.5,9.9c0,0.7-0.1,1.3-0.4,1.8c-0.4,0.7-1,1.1-1.8,1.1c-2.2,0-4.5,0-6.7,0c-1.3,0-2.3-1.1-2.3-2.6
		c0-1.4,0.1-2.9,0.2-4.3c0.1-2.1,0.2-4.2,0.3-6.3c0-0.3-0.1-0.3-0.3-0.4c-2.7-0.6-5.1-1.9-7.1-3.7c-1.4-1.2-2.5-2.7-3.4-4.3
		C5.9,27.5,5.9,27.5,5.8,27.3z"/>
	<path class="st0" d="M41.9,32.8c2.4,0,4.4,2,4.4,4.4c0,2.4-2,4.3-4.4,4.3c-2.5,0-4.4-2-4.4-4.4C37.5,34.7,39.5,32.8,41.9,32.8z"/>
</g>
</svg>
