<?xml version="1.0" encoding="utf-8"?>
<!-- Generator: Adobe Illustrator 25.3.1, SVG Export Plug-In . SVG Version: 6.00 Build 0)  -->
<svg version="1.1" id="Layer_1" xmlns="http://www.w3.org/2000/svg" xmlns:xlink="http://www.w3.org/1999/xlink" x="0px" y="0px"
	 viewBox="0 0 50 50" style="enable-background:new 0 0 50 50;" xml:space="preserve">
<style type="text/css">
	.st0{fill:#170463;}
</style>
<g>
	<path class="st0" d="M36.9,6.6c-0.2-1.3,0.5-1.9,1.7-1.5c1.4,0.6,2.5,1.6,3,3.1c0.3,1-0.4,1.8-1.5,1.7c-0.3,0-0.8,0.1-1,0.3
		C33.4,15.6,27.9,21,22.3,26.5c-0.4,0.4-0.5,0.7-0.3,1.2c0.5,1.8-0.1,3.4-0.9,4.9c-0.8,1.4-1.7,2.7-2.8,3.8c-2.6,2.8-5.3,5.4-8,8.1
		c-0.8,0.8-1.4,0.8-2.1,0c-2-2-4-4-6-6c-0.9-0.9-0.9-1.4,0-2.3c2.8-2.9,5.6-5.8,8.6-8.5c1.8-1.7,3.9-2.9,6.5-3.2
		c0.5-0.1,1-0.1,1.5,0.1c0.6,0.2,1,0,1.4-0.4c5.4-5.5,10.8-11,16.1-16.4C36.6,7.4,36.7,7,36.9,6.6z"/>
	<path class="st0" d="M25.8,24.5c0.7-0.7,1.4-1.5,2.2-2.3c0.7,0.7,1.3,1.4,2,2.1c0.2,0.2,0.5,0.4,0.8,0.3c1.7-0.4,3.2-0.1,4.7,0.6
		c1.7,0.8,3.1,1.7,4.4,3.1c2.6,2.7,5.3,5.3,7.9,7.9c0.9,0.9,0.9,1.4,0,2.2c-2,2-4,4-6,6c-0.7,0.7-1.3,0.7-2.1,0
		c-2.9-2.8-5.7-5.7-8.5-8.6c-1.7-1.8-3-4-3.3-6.5c-0.1-0.5-0.1-1.1,0.1-1.6c0.3-0.7-0.1-1.1-0.5-1.6C26.8,25.7,26.3,25.1,25.8,24.5z
		"/>
	<path class="st0" d="M21.9,20.9c-1.4-1.4-3-2.9-4.5-4.4c-2.1-2.1-4.2-4.1-6.3-6.2C10.8,10,10.4,9.9,10,9.9C8.8,10,8.1,9.2,8.5,8.1
		C9,6.7,10,5.7,11.4,5.2c1.2-0.5,2,0.2,1.9,1.5c0,0.3,0.2,0.8,0.4,1c3,3.1,6.1,6.2,9.2,9.3c0.5,0.5,1,0.9,1.6,1.4
		C23.6,19.4,22.8,20.1,21.9,20.9z"/>
</g>
</svg>
