<?xml version="1.0" encoding="utf-8"?>
<!-- Generator: Adobe Illustrator 25.3.1, SVG Export Plug-In . SVG Version: 6.00 Build 0)  -->
<svg version="1.1" id="Layer_1" xmlns="http://www.w3.org/2000/svg" xmlns:xlink="http://www.w3.org/1999/xlink" x="0px" y="0px"
	 viewBox="0 0 50 50" style="enable-background:new 0 0 50 50;" xml:space="preserve">
<style type="text/css">
	.st0{fill:#170463;}
</style>
<g>
	<path class="st0" d="M37.7,41c2.8,0.3,5.4,0.6,8,0.8c1.7,0.1,2.9,1,3.3,2.4c0.7,2.2-0.9,4.5-3.3,4.4c-4.4-0.1-8.8-0.7-13-2.1
		c-1.5-0.5-2.3-1.8-2.2-3.5c0.2-2.9,1-5.7,2.3-8.3c0.2-0.4,0.4-0.7,0.3-0.9c-3.1-3.1-6.2-6.3-9.3-9.5c-0.4,0.9-0.9,1.8-1.3,2.8
		c-2.1,4.3-5.7,6.9-10,8.7c-0.9,0.4-1.8,0.7-2.7,1c-1.5,0.5-2.7,0-3.4-1.3c-0.7-1.4-0.4-3.1,0.7-4c0.5-0.3,1-0.6,1.6-0.8
		c5.4-1.5,8.7-5.2,10.2-10.5c0.3-1.1,0.6-2.2,0.4-3.4c-0.4-2.5,1.1-4.7,3.4-5.6c2.5-1,4.7-0.3,6.5,1.5c4.1,4.3,8.2,8.5,12.4,12.8
		c2,2,2.2,4.4,0.6,6.8c-1.4,2.3-2.7,4.6-4.1,7C38.1,39.8,38,40.3,37.7,41z"/>
	<path class="st0" d="M24.4,26.1c1.7,1.7,3.4,3.6,5.2,5.3c0.4,0.4,0.4,0.7,0.2,1.2c-1.7,4.1-3.3,8.2-5,12.2
		c-0.7,1.6-1.8,2.3-3.2,2.2C20,47,18.3,45.7,18,44.1c-0.2-0.8-0.2-1.8,0.1-2.5C20.2,36.3,22.3,31.2,24.4,26.1z"/>
	<path class="st0" d="M16.6,1.4c3.4,0.1,6,2.7,6,6.2c-0.1,3.3-2.8,6-6.1,5.9c-3.4-0.1-6.1-2.8-6-6.2C10.5,3.9,13.2,1.3,16.6,1.4z"/>
	<path class="st0" d="M10.6,38.9C10,41,9.1,42.8,7.5,44.2c-1.1,1-2.1,0.9-3.2-0.1c-2.1-2-3-4.6-3.4-7.5c-0.4-3.3,0-6.6,1.7-9.6
		c0.4-0.7,1-1.5,1.6-2c1.2-1.1,2.4-1.2,3.6,0c0.9,0.9,1.6,2.1,2.4,3.2c-1.2,0.5-2.2,0.8-3.1,1.2c-2.3,0.9-3.5,3.3-3,5.8
		c0.6,2.5,2.5,4.1,4.8,3.9C9.5,39.1,10,39,10.6,38.9z"/>
</g>
</svg>
