<?xml version="1.0" encoding="utf-8"?>
<!-- Generator: Adobe Illustrator 25.3.1, SVG Export Plug-In . SVG Version: 6.00 Build 0)  -->
<svg version="1.1" id="Layer_1" xmlns="http://www.w3.org/2000/svg" xmlns:xlink="http://www.w3.org/1999/xlink" x="0px" y="0px"
	 viewBox="0 0 50 50" style="enable-background:new 0 0 50 50;" xml:space="preserve">
<style type="text/css">
	.st0{fill:#170463;}
</style>
<g>
	<path class="st0" d="M3.4,50c-0.2-0.7-0.4-1.3-0.6-1.9c0.7-0.1,1.4-0.2,2-0.3c3.3-0.4,6.7-0.8,10-1.2c0.5-0.1,0.8-0.2,1.1-0.6
		c2.8-3.7,5.7-7.4,8.5-11.1c0.1-0.2,0.3-0.4,0.4-0.6c0.5-1,0.3-1.9-0.6-2.5c-1.6-1.2-3.3-2.3-4.9-3.5c-2.4-1.8-3.2-4.4-2.2-7.2
		c0-0.1,0.1-0.2,0.1-0.3c-1.5,0-3,0-4.5,0c-0.6,0-1.2,0-1.8,0c-0.4,0-0.6,0.1-0.8,0.5c-0.3,0.9-0.9,1.4-1.9,1.4c0-0.7,0-1.3,0-1.9
		c0-0.4-0.1-0.6-0.5-0.6c-0.5-0.1-1-0.2-1.6-0.4c0.8-0.1,1.4-0.3,2.1-0.4c0-0.8,0-1.5,0-2.2c0.8-0.1,1.4,0.1,1.8,1
		c0.3,0.7,0.7,0.8,1.4,0.8c1.9,0,3.7,0.1,5.6,0.1c0.3-1.7,1-3.1,1.9-4.5c1.3-2,3-3.5,5-4.8c1.9-1.3,4.6-0.4,5.5,1.5
		c0.9,2,1.8,4,2.4,6.1c0.1,0.5,0.3,0.6,0.8,0.6c1.8-0.1,3.6-0.2,5.4-0.2c0.7,0,1.5,0.2,2.2,0.3c0.4,0.1,0.8,0.4,0.8,0.9
		c0.1,0.5-0.3,0.8-0.6,1c-0.6,0.3-1.3,0.6-2,0.8c-1.9,0.4-3.9,0.7-5.8,1c-0.5,0.1-1,0.1-1.5,0.1c-0.6,0-1.2-0.2-1.5-0.8
		c-0.6-0.9-1.3-1.8-1.9-2.8c-0.3,0.5-0.7,1.1-1.1,1.6c0,0.1-0.1,0.1-0.1,0.2c-0.3,0.6-0.7,0.9-1.5,0.8c-1.8-0.1-3.7,0-5.5,0
		c0.1,0.1,0.3,0.2,0.4,0.3c2.8,2,5.6,4.1,8.3,6.1c0.6,0.4,1.2,0.9,1.8,1.4c2.3,1.7,2.6,4.9,0.8,7.1c-2.5,3.1-4.8,6.3-7.2,9.5
		c-0.1,0.1-0.2,0.3-0.3,0.5c1.1-0.1,2.1-0.3,3.1-0.4c4.7-0.6,9.5-1.2,14.2-1.8c1-0.1,1.9-0.4,2.8-0.8c1.8-0.8,2.6-2.6,2.1-4.5
		c0-0.1-0.1-0.2-0.1-0.4c0.5-0.1,1-0.1,1.4-0.1c0.1,0,0.3,0.2,0.3,0.3c0.4,1.5,0.4,3-0.3,4.4c-0.5,1-1.4,1.5-2.3,2.1
		c-1.4,0.9-2.9,1.1-4.4,1.2c-3.9,0.4-7.8,0.9-11.7,1.4c-3.4,0.4-6.7,0.8-10.1,1.2c-3.6,0.4-7.2,0.8-10.7,1.2
		C6.1,49.7,4.8,49.8,3.4,50z"/>
	<path class="st0" d="M25.7,4.1c0-2.3,1.8-4.1,4-4.1c2.1,0,4.1,2,4.1,4.1c0,2.2-1.8,4.1-4,4.1C27.4,8.3,25.7,6.5,25.7,4.1z"/>
</g>
</svg>
