<?xml version="1.0" encoding="utf-8"?>
<!-- Generator: Adobe Illustrator 25.3.1, SVG Export Plug-In . SVG Version: 6.00 Build 0)  -->
<svg version="1.1" id="Layer_1" xmlns="http://www.w3.org/2000/svg" xmlns:xlink="http://www.w3.org/1999/xlink" x="0px" y="0px"
	 viewBox="0 0 50 50" style="enable-background:new 0 0 50 50;" xml:space="preserve">
<style type="text/css">
	.st0{fill:#170463;}
</style>
<g>
	<path class="st0" d="M28.5,26.1c-0.8,1.1-1.7,2.1-2.5,3.2c-1.9,2.5-3.8,5-5.8,7.4c-1,1.3-2.2,1.5-3.5,0.6c-2.2-1.4-4.5-2.9-6.7-4.3
		c-1.1-0.7-1.4-2.1-0.7-3.2c0.7-1.1,2-1.5,3.2-0.9c0.8,0.4,1.5,1,2.3,1.5c0.1,0,0.1,0.1,0.2,0.1c0.9,0.6,1.8,1.1,2.7,1.7
		c0.4-0.6,0.8-1.2,1.2-1.8c1.8-2.8,3.6-5.5,5.5-8.3c0.2-0.3,0.3-0.6,0.3-0.9c0-1.7,0.1-3.4,0.2-5.2c0-0.1,0-0.2,0-0.4
		c-0.9,1.1-1.7,2.2-2.5,3.2c-0.6,0.7-1.3,1.5-1.9,2.1c-0.3,0.3-0.6,0.5-1,0.7c-0.7,0.4-1.6,0.1-2-0.6c-0.4-0.6-0.4-1.6,0.2-2
		c1.1-0.9,2-2,2.8-3.1c1.6-2.1,3.1-4.2,4.7-6.2c0.4-0.5,0.9-0.9,1.5-1c1.9-0.3,3.8-0.3,5.7-0.1c0.3,0,0.5,0,0.7-0.3
		c1.7-2.2,3.4-4.5,5-6.7c0.4-0.5,0.9-0.8,1.6-0.7c0.7,0.1,1.1,0.5,1.3,1.1c0.2,0.5,0.1,1-0.3,1.5c-1.5,2-2.9,3.9-4.4,5.9
		c-0.5,0.7-1.1,1.3-1.6,2c-0.1,0.1-0.2,0.3-0.2,0.5c-0.1,1.3-0.2,2.7-0.3,4c-0.1,2.6-0.2,5.2-0.3,7.7c0,0.2,0.1,0.4,0.2,0.6
		c1.6,2.4,3.1,4.8,4.7,7.1c0.6,0.9,0.9,1.9,1,3c0.3,3.5,0.6,7,0.8,10.5c0,0.5,0.1,1,0,1.5c-0.3,1.2-1.3,1.9-2.5,1.8
		c-1.1-0.1-2-1-2.1-2.2c-0.3-3.7-0.6-7.4-0.9-11.1c0-0.4-0.2-0.6-0.4-0.9c-2-2.6-4-5.1-6-7.7C28.7,26.3,28.6,26.2,28.5,26.1z"/>
	<path class="st0" d="M28.4,41.5c2.1,0,3.7,1.7,3.7,3.8c0,2-1.7,3.7-3.7,3.7c-2.1,0-3.7-1.7-3.7-3.8C24.7,43.2,26.4,41.5,28.4,41.5z
		"/>
	<path class="st0" d="M30.5,1C32.4,1,34,2.5,34,4.4c0,1.9-1.5,3.5-3.4,3.5c-1.9,0-3.5-1.5-3.5-3.4C27.1,2.5,28.6,1,30.5,1z"/>
</g>
</svg>
