<?xml version="1.0" encoding="utf-8"?>
<!-- Generator: Adobe Illustrator 25.3.1, SVG Export Plug-In . SVG Version: 6.00 Build 0)  -->
<svg version="1.1" id="Layer_1" xmlns="http://www.w3.org/2000/svg" xmlns:xlink="http://www.w3.org/1999/xlink" x="0px" y="0px"
	 viewBox="0 0 50 50" style="enable-background:new 0 0 50 50;" xml:space="preserve">
<style type="text/css">
	.st0{fill:#170463;}
</style>
<g>
	<path class="st0" d="M21.2,26.3c-0.7,0.3-1.3,0.7-2,1c-1.3,0.7-2.7,1.4-4,2.1c-0.2,0.1-0.4,0.3-0.5,0.5c-1.6,3.4-3.1,6.8-4.7,10.2
		c-0.6,1.2-1.9,1.7-3,1.2c-1.2-0.5-1.6-1.9-1.1-3.1c1.7-3.7,3.4-7.4,5.1-11.1c0.2-0.5,0.6-0.9,1.2-1.2c2.4-1.2,4.8-2.5,7.1-3.7
		c0.3-0.2,0.4-0.3,0.3-0.6c-0.6-1.8-1.1-3.6-1.6-5.4c-0.2,0.2-0.3,0.4-0.5,0.6c-0.7,1-1.5,1.9-2.3,2.9c-0.3,0.3-0.6,0.6-1,0.8
		c-2,0.9-4.1,1.7-6.1,2.5c-1.3,0.5-2.6-0.5-2.5-1.9c0.1-0.7,0.4-1.2,1-1.5c1.9-0.8,3.7-1.6,5.6-2.4c0.2-0.1,0.4-0.2,0.5-0.4
		c1.1-1.4,2.2-2.9,3.3-4.3c1.5-1.8,3.5-2.8,5.8-3.2c1.6-0.3,3.2-0.1,4.7,0c1.2,0.1,2.4,0.1,3.6,0.2c0.4,0,0.7,0.2,1.1,0.4
		c2.1,1.1,4.2,2.2,6.2,3.2c0.6,0.3,1.1,0.8,1.2,1.5c0.1,0.7-0.2,1.3-0.8,1.7c-0.6,0.4-1.3,0.5-1.9,0.1c-1.2-0.6-2.5-1.3-3.7-1.9
		c-0.8-0.4-1.7-0.9-2.5-1.3c-0.1,0-0.1-0.1-0.2-0.1c-0.8-0.1-1.6-0.1-2.5-0.2c0.2,0.8,0.4,1.6,0.7,2.4c0.6,2,1.1,4.1,1.7,6.1
		c0.6,2.2-0.1,4.2-2,5.7c-0.9,0.7-1.8,1.5-2.7,2.2c-0.2,0.2-0.2,0.3-0.1,0.5c0.6,1.9,1.1,3.9,1.7,5.8c0.4,1.3-0.2,2.5-1.5,2.9
		c-1.2,0.4-2.4-0.3-2.8-1.7c-0.7-2.5-1.4-5-2.2-7.5c-0.3-1,0-1.9,0.8-2.5C20.7,26.8,21,26.6,21.2,26.3
		C21.2,26.4,21.2,26.3,21.2,26.3z"/>
	<path class="st0" d="M0.8,43.3c0-0.4,0.1-0.7,0.2-1.1c0.2-0.9,0.8-1.7,1.4-2.3c0.7-0.8,1.5-1.5,2.4-2.2c-0.2,0.8-0.4,1.5-0.2,2.3
		c0.3,1.4,1.5,2.5,3,2.7c1.3,0.2,2.8-0.6,3.4-1.8c1.3-2.7,2.5-5.5,3.8-8.2c0.2-0.4,0.4-0.6,0.8-0.8c1.1-0.4,2.1-0.8,3.2-1.2
		c0.2,0.8,0.4,1.5,0.6,2.2c0.4,1.5,0.9,3,1.3,4.5c0.5,1.9,2.4,2.9,4.3,2.4c1.8-0.5,2.9-2.4,2.4-4.2c-0.5-1.7-1-3.4-1.5-5.1
		c-0.1-0.3-0.1-0.6,0.2-0.8c0.2-0.1,0.4-0.3,0.5-0.4c0.7-0.7,1.4-1,2.4-1.1c2.4-0.3,4.9-0.5,7.3-0.2c1,0.1,2,0.4,2.8,0.9
		c1,0.7,1.4,1.6,1,2.8c-0.4,1.3-1.4,2.3-2.3,3.2c-1.9,1.8-4.1,3.1-6.4,4.3c-4.3,2.3-8.9,4-13.6,5.2c-0.3,0.1-0.5,0.1-0.8-0.1
		c-2.5-1.5-5.1-1.5-7.6,0.1C9,44.7,8.6,45,8.1,45.1c-0.8,0.2-1.5,0.1-2.2-0.4c-1-0.8-2.1-1.3-3.4-1.4C2,43.2,1.5,43.3,0.8,43.3z"/>
	<path class="st0" d="M42.5,48.3c-1.2,0-2.3-0.3-3.3-1.1c-1-0.7-2.1-1.2-3.3-0.8c-0.6,0.2-1.2,0.5-1.7,0.8c-0.7,0.5-1.5,0.9-2.3,1
		c-1.6,0.3-3.1,0-4.4-1c-1-0.7-2-1.1-3.2-0.8c-0.5,0.1-1,0.4-1.5,0.6c-0.8,0.5-1.6,1-2.6,1.2c-1.7,0.3-3.2-0.1-4.5-1.1
		c-0.9-0.7-2-1-3.2-0.7c-0.6,0.1-1.1,0.4-1.6,0.8c-1.1,0.7-2.2,1.1-3.5,1.1c-1.2,0-2.2-0.3-3.2-1c-0.8-0.6-1.7-1-2.7-1
		c-0.5,0-0.8-0.4-0.8-0.9c0-0.5,0.4-1,0.9-0.9c0.7,0.1,1.4,0.2,2.1,0.4c0.5,0.2,1,0.5,1.4,0.8c1.4,1.1,3.4,1.1,4.8,0
		c2-1.6,4.8-1.5,6.8-0.1c1,0.8,2.2,1.1,3.4,0.8c0.5-0.1,1.1-0.5,1.5-0.8c0.9-0.6,1.8-1,2.9-1.1c1.3-0.1,2.4,0.1,3.5,0.8
		c0.2,0.1,0.4,0.3,0.7,0.4c1.4,1,2.9,1,4.4,0c0.7-0.5,1.5-1,2.3-1.2c1.7-0.4,3.3-0.1,4.7,1c1,0.8,2.2,1.1,3.4,0.7
		c0.6-0.2,1.2-0.6,1.7-0.9c0.9-0.6,1.9-0.9,3-1c0.6,0,1,0.3,1.1,0.8c0.1,0.5-0.3,1.1-0.8,1.1c-1,0-1.8,0.4-2.6,0.9
		C44.8,48,43.7,48.3,42.5,48.3z"/>
	<path class="st0" d="M18.2,9.1c-2,0-3.7-1.6-3.7-3.7c0-2.1,1.6-3.7,3.7-3.7c2.1,0,3.7,1.7,3.7,3.7C21.9,7.4,20.3,9.1,18.2,9.1z"/>
</g>
</svg>
