<?xml version="1.0" encoding="utf-8"?>
<!-- Generator: Adobe Illustrator 25.3.1, SVG Export Plug-In . SVG Version: 6.00 Build 0)  -->
<svg version="1.1" id="Layer_1" xmlns="http://www.w3.org/2000/svg" xmlns:xlink="http://www.w3.org/1999/xlink" x="0px" y="0px"
	 viewBox="0 0 50 50" style="enable-background:new 0 0 50 50;" xml:space="preserve">
<style type="text/css">
	.st0{fill:#170463;}
</style>
<g>
	<path class="st0" d="M42.2,3.2c1.1-0.1,1.7,0.6,2.2,1.5c0.4,0.7,0.2,1.4-0.2,2.1c-1.7,2.9-3.4,5.9-5.1,8.8c-1.3,2.1-2.6,4.1-4,6.1
		c-0.3,0.5-0.8,0.8-1.3,1.1c-4,2.5-8,4.9-12,7.4c-0.2,0.1-0.3,0.3-0.4,0.4c-1.9,3.2-3.8,6.5-5.7,9.7c-0.5,0.8-2.2,1.1-2.9,0.4
		c-0.7-0.7-1.1-1.6-0.4-2.8c2.8-4.6,5.5-9.2,8.3-13.8c0.2-0.4,0.6-0.8,1-1c3.4-2.1,6.8-4.2,10.2-6.2c0.6-0.4,0.9-0.9,1.2-1.4
		c2.3-3.8,4.5-7.5,6.8-11.3C40.6,3.3,41.4,3.2,42.2,3.2z"/>
	<path class="st0" d="M44,46.8c-1.2,0-2.1-0.4-2.9-1.2c-0.6-0.5-1.2-0.5-1.8,0c-1.7,1.6-4.3,1.5-6,0c-0.5-0.5-1-0.5-1.5,0
		c-1.4,1.3-3.6,1.5-5.2,0.5c-0.3-0.2-0.6-0.4-1-0.6c-0.4-0.3-0.9-0.2-1.2,0.1c-1.7,1.6-4.5,1.8-6.3,0c-0.5-0.5-1.1-0.4-1.7,0.1
		c-1.4,1.3-3.4,1.5-5,0.5c-0.2-0.1-0.5-0.3-0.7-0.5c-0.7-0.6-1.2-0.6-1.9,0c-1.2,1.1-2.6,1.4-4.2,0.9c-0.5-0.2-1-0.5-1.4-0.8
		c-0.6-0.5-0.7-1.4-0.2-2c0.4-0.5,1.3-0.7,2-0.3C6,44,6.2,44,7.1,43.3c1.7-1.3,3.9-1.2,5.5,0.1c0.6,0.5,1.3,0.5,1.9,0
		c1.6-1.4,3.8-1.4,5.5-0.1c0.9,0.7,1.3,0.7,2.2,0c1.6-1.2,3.8-1.3,5.4-0.1c0.2,0.1,0.3,0.4,0.5,0.5c0.5,0.3,1,0.2,1.5-0.2
		c0.6-0.5,1.2-0.8,1.9-1c1.4-0.3,2.6,0,3.7,0.9c0.8,0.6,1.5,0.7,2.3,0c1.6-1.3,3.8-1.3,5.3,0c0.7,0.5,1.3,0.6,2.1,0.1
		c1-0.7,2.1-0.2,2.3,0.8c0.1,0.6-0.1,1-0.5,1.4C45.9,46.5,45,46.8,44,46.8z"/>
	<path class="st0" d="M11.9,24.4c-0.1-1.8,1.5-3.6,3.5-3.6c2,0.1,3.5,1.3,3.4,3.9c-0.1,1.8-1.6,3.2-3.5,3.1
		C13.7,27.9,11.7,26.3,11.9,24.4z"/>
</g>
</svg>
