<?xml version="1.0" encoding="utf-8"?>
<!-- Generator: Adobe Illustrator 25.3.1, SVG Export Plug-In . SVG Version: 6.00 Build 0)  -->
<svg version="1.1" id="Layer_1" xmlns="http://www.w3.org/2000/svg" xmlns:xlink="http://www.w3.org/1999/xlink" x="0px" y="0px"
	 viewBox="0 0 50 50" style="enable-background:new 0 0 50 50;" xml:space="preserve">
<style type="text/css">
	.st0{fill:#170463;}
</style>
<g>
	<path class="st0" d="M36.3,22.9c0,0.6-0.1,1.3-0.1,1.9c-0.1,1.9-0.2,3.9-0.3,5.8c0,0.1,0,0.3,0.1,0.4c1.3,2,2.7,4,4,6
		c0.2,0.3,0.5,0.5,0.8,0.8c2.3,2,4.5,3.9,6.8,5.9c0.7,0.6,0.6,1.5-0.1,2c-0.9,0.6-1.7,0.6-2.6,0c-0.7-0.5-1.3-1.1-1.9-1.6
		c-1.6-1.3-3.1-2.6-4.7-3.8c-0.6-0.5-1.3-1-1.9-1.5c-0.1-0.1-0.1-0.1-0.2-0.2c-1.6-2.4-3.3-4.8-4.9-7.2c0-0.1-0.1-0.1-0.2-0.2
		c0,0.6-0.1,1-0.1,1.5c-0.1,1.6-0.3,3.2-0.4,4.8c0,0.2,0,0.3,0,0.5c0,0.1,0,0.2,0.1,0.3c1.5,2.1,3,4.3,4.5,6.4
		c0.4,0.6,0.9,1.2,1.3,1.8c0.3,0.4,0.5,0.9,0.5,1.4c0,0.4-0.1,0.8-0.4,1.1c-0.8,0.6-1.1,0.8-2,0.2c-0.7-0.4-1.3-1.1-1.8-1.8
		c-1.9-2.7-3.8-5.4-5.7-8.1c-0.3-0.5-0.6-1-0.9-1.5c-0.4-0.6-0.5-1.3-0.4-2.1c0.1-1.5,0.3-3,0.4-4.5c0.2-2.1,0.8-4,1.3-6
		c0.2-0.9,0.4-1.7,0.6-2.6c0.1-0.3,0-0.6,0-0.9c-0.3-2.2-0.6-4.4-0.9-6.6c-0.1-0.8-0.6-1.4-1-1.9C23.5,10.3,21,7.1,18.4,4
		c-1-1.2-0.6-2.9,0.9-3.5c0.5-0.2,1-0.1,1.4,0.3c0.4,0.4,0.7,0.8,1.1,1.3c2.5,3.2,5,6.3,7.6,9.5c0.1,0.1,0.2,0.2,0.4,0.2
		c0.9-0.1,1.8-0.2,2.7-0.2c2,0.1,3.7,1,5,2.6c0.1,0.1,0.2,0.3,0.2,0.4c1.7,4.1,3.3,8.1,5,12.2c0.5,1.2,0,2.5-1.2,2.9
		c-1.1,0.5-2.4-0.1-2.9-1.2c-0.7-1.7-1.4-3.4-2.1-5.1C36.4,23.1,36.4,23,36.3,22.9C36.3,22.9,36.3,22.9,36.3,22.9z"/>
	<path class="st0" d="M33.8,0.8c2.9,0,5.1,2.3,5,5.2c0,2.6-2.2,5-5.1,4.9c-2.9,0-5.1-2.3-5-5.2C28.8,3,31.1,0.7,33.8,0.8z"/>
	<path class="st0" d="M8,5.4c-1.5,0-3.1-0.2-4.6-0.8C3,4.5,2.6,4.2,2.3,3.9c-0.4-0.4-0.4-0.9,0-1.3c0.5-0.5,1.1-0.7,1.7-0.9
		c1.5-0.5,3.1-0.6,4.7-0.5c1.4,0,2.7,0.2,4,0.7c0.4,0.1,0.7,0.3,1,0.6c0.6,0.5,0.6,1.1,0,1.6c-0.6,0.5-1.3,0.7-2,0.9
		C10.5,5.3,9.3,5.4,8,5.4z"/>
</g>
</svg>
