<?xml version="1.0" encoding="utf-8"?>
<!-- Generator: Adobe Illustrator 25.3.1, SVG Export Plug-In . SVG Version: 6.00 Build 0)  -->
<svg version="1.1" id="Layer_1" xmlns="http://www.w3.org/2000/svg" xmlns:xlink="http://www.w3.org/1999/xlink" x="0px" y="0px"
	 viewBox="0 0 50 50" style="enable-background:new 0 0 50 50;" xml:space="preserve">
<style type="text/css">
	.st0{fill:#170463;}
</style>
<g>
	<path class="st0" d="M29.4,13.5c1.4,0.6,2.7,1.4,4,2.3c2.3,1.6,4.1,3.6,5.7,5.9c1.8,2.7,2.9,5.6,3.5,8.7c0.5,3.1,0.4,6.1-0.3,9.1
		c0,0.2-0.1,0.3-0.2,0.4c-1.1,1.2-2.3,2.4-3.6,3.3c0,0-0.1,0.1-0.1,0.1c-0.1-0.6-0.2-1.2-0.3-1.9c-0.9-4.8-2.9-9.1-6.2-12.7
		c-1.6-1.7-3.3-3.2-5.3-4.5c-0.1-0.1-0.2-0.2-0.2-0.3c0.1-2.5,0.6-4.8,1.5-7.1c0.4-1.1,0.9-2.2,1.5-3.2
		C29.4,13.6,29.4,13.5,29.4,13.5z"/>
	<path class="st0" d="M34.3,4.2c-0.5,0.4-0.9,0.7-1.4,1.1c-3.6,3-6.2,6.7-7.8,11.2c-0.7,2-1.2,4.1-1.3,6.2c0,0.4-0.1,0.8-0.1,1.2
		c0,0.1,0,0.2-0.2,0.3c-1.6,0.8-3.3,1.5-5,1.9c-1.8,0.4-3.5,0.7-5.4,0.7c-0.2,0-0.3-0.1-0.3-0.2c-0.2-2-0.1-4,0.2-6
		c0.3-2,0.9-3.9,1.8-5.7c1-2.1,2.2-3.9,3.7-5.6c1.8-2,3.9-3.7,6.3-4.9c1.3-0.7,2.6-1.2,3.9-1.6c0.2-0.1,0.4-0.1,0.6,0
		C31,3,32.6,3.5,34.1,4.2C34.2,4.2,34.2,4.2,34.3,4.2z"/>
	<path class="st0" d="M32.7,34.5c-0.6,0.4-1.2,0.8-1.9,1.2c-2.2,1.3-4.6,2.2-7.1,2.7c-2,0.4-4.1,0.5-6.2,0.3c-2.9-0.2-5.6-1-8.2-2.3
		c-2.1-1-4-2.4-5.6-4c-0.1-0.1-0.1-0.1-0.1-0.2c-0.5-1.6-0.9-3.2-1-4.9c0,0,0,0,0-0.1c0.3,0.1,0.7,0.3,1,0.4c2.4,1,4.9,1.6,7.6,1.8
		c3.7,0.2,7.2-0.2,10.6-1.5c1.1-0.4,2.1-0.9,3.1-1.4c0.1-0.1,0.2-0.1,0.4,0C28.3,28.6,30.9,31.3,32.7,34.5z"/>
	<path class="st0" d="M33.9,36.9c0.3,0.8,0.6,1.7,0.8,2.5c0.5,1.8,0.8,3.6,0.9,5.4c0,0.1,0,0.2-0.1,0.3c-2.3,1.2-4.8,2-7.4,2.4
		c-1.8,0.3-3.6,0.3-5.4,0.1c-3-0.3-5.8-1.2-8.5-2.6c-2-1.1-3.7-2.4-5.3-4C8,40,7.1,39,6.4,37.9c0,0,0-0.1-0.1-0.1
		c4.3,2.5,9,3.8,13.9,3.6C25.2,41.2,29.7,39.7,33.9,36.9z"/>
	<path class="st0" d="M10.2,26.6c-0.4-0.1-0.7-0.1-1-0.2c-2.3-0.4-4.6-1.1-6.7-2.2c-0.2-0.1-0.2-0.2-0.2-0.3c0.1-2.9,0.8-5.7,2-8.4
		c1.3-2.9,3.1-5.3,5.5-7.4c3.2-2.9,6.9-4.7,11.1-5.5c0.6-0.1,1.3-0.2,1.9-0.3c0,0,0.1,0,0.2,0c-4.3,2.5-7.6,5.9-9.9,10.3
		C10.8,17,9.8,21.7,10.2,26.6z"/>
	<path class="st0" d="M45.6,34.5c0-5-1.3-9.6-3.9-13.8c-2.6-4.2-6.2-7.3-10.7-9.5c0.3-0.4,0.6-0.8,0.9-1.1c1.4-1.7,3.1-3.1,4.9-4.3
		c0.1-0.1,0.2-0.1,0.4,0c3.4,2.2,6,5,7.9,8.6c1.2,2.3,2,4.8,2.4,7.4C48,26.2,47.5,30.4,45.6,34.5C45.6,34.4,45.6,34.4,45.6,34.5z"/>
</g>
</svg>
