<?xml version="1.0" encoding="utf-8"?>
<!-- Generator: Adobe Illustrator 25.3.1, SVG Export Plug-In . SVG Version: 6.00 Build 0)  -->
<svg version="1.1" id="Layer_1" xmlns="http://www.w3.org/2000/svg" xmlns:xlink="http://www.w3.org/1999/xlink" x="0px" y="0px"
	 viewBox="0 0 50 50" style="enable-background:new 0 0 50 50;" xml:space="preserve">
<style type="text/css">
	.st0{fill:#170463;}
</style>
<path class="st0" d="M18.8,30.8c-0.8,0-1.5,0-2.2,0c-0.1,0-0.1,0-0.2,0c-0.6,0.3-1.1,0.3-1.7,0c-0.1,0-0.2-0.1-0.2-0.1
	c-2.1,0-4.1,0-6.2,0c0,0-0.1,0-0.1,0c0,1.5,0,3,0,4.5c-0.6,0-1.2,0-1.9,0c0-1.5,0-3,0-4.5c-0.5,0-0.9,0-1.4,0c0,1.5,0,3,0,4.5
	c-0.6,0-1.2,0-1.9,0c0-3.8,0-7.6,0-11.4c0.6,0,1.2,0,1.9,0c0,1.6,0,3.3,0,4.9c0.5,0,0.9,0,1.4,0c0-1.6,0-3.3,0-4.9
	c0.6,0,1.2,0,1.9,0c0,1.6,0,3.2,0,4.9c1.8,0,3.7,0,5.5,0c0-0.4,0-0.8,0-1.2c0-1.4,0-2.7,0-4.1c0-3.7,2.7-7,6.4-7.7
	c0.4-0.1,0.9-0.1,1.4-0.1c2.4,0,4.8,0,7.1,0c3.5,0.1,6.6,2.6,7.3,6c0.1,0.6,0.2,1.3,0.2,1.9c0,1.6,0,3.2,0,4.8c0,0.1,0,0.2,0,0.3
	c1.8,0,3.7,0,5.5,0c0-1.8,0-3.6,0-5.4c0.6,0,1.2,0,1.9,0c0,1.8,0,3.6,0,5.4c0.5,0,0.9,0,1.4,0c0-1.8,0-3.6,0-5.5c0.1,0,0.2,0,0.2,0
	c0.5,0,1,0,1.4,0c0.2,0,0.2,0,0.2,0.2c0,2.2,0,4.4,0,6.6c0,1.5,0,2.9,0,4.4c0,0.1,0,0.2,0,0.3c-0.6,0-1.2,0-1.9,0c0-1.3,0-2.6,0-3.9
	c-0.5,0-0.9,0-1.4,0c0,0.1,0,0.2,0,0.3c0,1.2,0,2.3,0,3.5c0,0.2-0.1,0.2-0.2,0.2c-0.5,0-1.1,0-1.6,0c0-1.3,0-2.7,0-4
	c-0.1,0-0.2,0-0.3,0c-2,0-3.9,0-5.9,0c-0.1,0-0.3,0-0.4,0.1c-0.5,0.2-1,0.2-1.6,0c-0.1,0-0.2-0.1-0.2-0.1c-0.7,0-1.4,0-2.1,0
	c0,0-0.1,0-0.1,0c0,0.1,0,0.2,0,0.3c0,5,0,10,0,14.9c0,1.1-0.8,1.9-1.8,1.9c-1,0-1.8-0.8-1.8-1.8c0-1.2,0-2.4,0-3.5
	c0-3.1,0-6.3,0-9.4c0-1-0.5-1.8-1.3-2.2c-0.1-0.1-0.2-0.1-0.4-0.1c-0.4,0-0.9,0-1.3,0c-0.5,0-0.9,0.2-1.2,0.5
	c-0.6,0.5-0.9,1.2-0.9,2c0,4.3,0,8.5,0,12.8c0,1-0.7,1.8-1.7,1.9c-1.1,0.1-2-0.7-2-1.8c0-2.7,0-5.5,0-8.2c0-2.3,0-4.6,0-6.9
	C18.8,30.9,18.8,30.9,18.8,30.8z M32.6,28.7C32.6,28.7,32.6,28.7,32.6,28.7c0-2.2,0-4.4,0-6.6c0-0.4-0.3-0.7-0.7-0.7
	c-0.4,0-0.7,0.3-0.7,0.7c0,0.1,0,0.2,0,0.3c0,2,0,4-0.1,6c0,0.1,0,0.2,0,0.3C31.6,28.7,32.1,28.7,32.6,28.7z M18.7,28.7
	c0-0.1,0-0.2,0-0.2c0-1.2,0-2.4,0-3.6c0-0.9,0-1.8,0-2.7c0-0.5-0.3-0.8-0.8-0.8c-0.4,0-0.7,0.3-0.7,0.8c0,2.1,0,4.2,0,6.3
	c0,0,0,0.1,0,0.1C17.8,28.7,18.2,28.7,18.7,28.7z"/>
<g>
	<path class="st0" d="M31,8.2c0,3.3-2.7,6-6,6c-3.3,0-6-2.7-6-6.1c0-3.3,2.7-6,6-6C28.3,2.1,31,4.8,31,8.2z"/>
</g>
</svg>
