<?xml version="1.0" encoding="utf-8"?>
<!-- Generator: Adobe Illustrator 25.3.1, SVG Export Plug-In . SVG Version: 6.00 Build 0)  -->
<svg version="1.1" id="Layer_1" xmlns="http://www.w3.org/2000/svg" xmlns:xlink="http://www.w3.org/1999/xlink" x="0px" y="0px"
	 viewBox="0 0 50 50" style="enable-background:new 0 0 50 50;" xml:space="preserve">
<style type="text/css">
	.st0{fill:#170463;}
</style>
<g>
	<path class="st0" d="M14.5,30.3c-0.4,0.9-0.8,1.7-1.2,2.5c-0.6,1.2-1.1,2.4-1.7,3.5c-0.2,0.4-0.6,0.8-0.9,1.1
		c-1.4,1.5-2.7,2.9-4.1,4.4c-0.7,0.7-1.3,1.4-2,2.2c-1,1-2.5,1-3.5,0.1c-1-0.9-1-2.5-0.1-3.5c1.5-1.6,3-3.2,4.5-4.8
		c0.6-0.6,1.2-1.2,1.8-1.9c0.3-0.3,0.5-0.8,0.7-1.2c1.8-3.2,3.5-6.5,5.2-9.7c1.3-2.4,2.6-4.8,3.9-7.3c0.5-0.9,1-1.5,2-1.9
		c0.9-0.3,1.9-0.2,2.7,0.2c0.4,0.2,0.8,0.5,1.2,0.7c0.1,0.1,0.3,0.2,0.4,0.3c-0.8,0-1.5,0-2.2,0c0,0,0,0,0,0
		c0.5,0.1,0.9,0.2,1.4,0.3c1.9,0.4,3.7,0.8,5.6,1.3c0.4,0.1,0.8-0.1,1.2-0.1c1.7-0.4,3.3-0.7,5-1.1c1.4-0.3,2.4,0.6,2.6,1.5
		c0.3,1.1-0.4,2.3-1.5,2.5c-1.6,0.4-3.2,0.7-4.8,1.1c-0.6,0.1-1.2,0.3-1.8,0.4c-0.3,0-0.7,0-1-0.1c-2.5-0.6-5-1.1-7.5-1.7
		c0,0-0.1,0-0.1,0c0.4,0.2,0.8,0.4,1.2,0.5c2,0.9,4.1,1.9,6.1,2.8c0.3,0.1,0.6,0.2,0.9,0.3c0,0-0.1,0-0.2,0.1
		c-1,0.4-2.1,0.7-3.1,1.1c-0.7,0.2-1.3,0.6-1.7,1.2c0,0,0,0.1-0.1,0.1c-0.7-0.5-1-1.3-1.5-1.9c-0.8,1.4-1.6,2.7-2.3,4.1
		c0.1,0.1,0.3,0.2,0.4,0.2c2.1,1.3,4.2,2.6,6.3,4c0.7,0.5,1.1,1.1,1.2,2c0.1,2.9,0.1,5.7,0.1,8.6c0,1.5-1.2,2.6-2.7,2.5
		c-1.2-0.1-2.2-1.1-2.3-2.3c0-1,0-2.1-0.1-3.1c0-1.3,0-2.7-0.1-4c0-0.1,0-0.2-0.2-0.3c-2.5-1.6-5.1-3.2-7.6-4.8
		C14.7,30.3,14.6,30.3,14.5,30.3z"/>
	<path class="st0" d="M40.6,31c-0.9,0.5-1.7,0.9-2.5,1.3c-0.3,0.2-0.7,0.3-1,0.5c-0.1,0-0.1,0.1-0.2,0.2c-0.1,1.6-0.1,3.1-0.2,4.7
		c-0.1,1.6-0.1,3.1-0.2,4.7c-0.1,1.2-1.2,2.3-2.4,2.3c-1.3,0-2.5-0.9-2.6-2.1c-0.1-0.6,0-1.1,0-1.7c0.1-1.6,0.1-3.2,0.2-4.9
		c0.1-1.6,0.1-3.2,0.2-4.9c0-1,0.7-1.9,1.7-2.2c1.5-0.5,2.9-1,4.4-1.5c1.4-0.5,2.2-1.9,1.8-3.3c-0.4-1.6-0.8-3.2-1.1-4.8
		c0-0.1,0-0.2,0-0.2c0.7-1.3,0.8-2.6,0.2-3.7c0.3,0.3,0.8,0.8,1.3,1.2c1.3,1.3,2.6,2.7,3.9,4c0.9,0.9,1.7,1.8,2.6,2.7
		c0.5,0.5,0.7,1.2,0.5,2c-0.5,2.3-1,4.6-1.6,6.9c0,0.1,0,0.3,0,0.4c1.2,2.6,2.4,5.2,3.5,7.7c0.2,0.5,0.4,0.9,0.5,1.4
		c0.3,1.2-0.5,2.5-1.7,2.9c-1.2,0.4-2.5-0.1-3.1-1.3c-0.5-1-1-2.1-1.4-3.1c-1-2.1-2-4.3-2.9-6.4c-0.3-0.6-0.3-1.2-0.2-1.8
		C40.4,31.7,40.5,31.4,40.6,31z"/>
	<path class="st0" d="M26.8,11.8c-0.2,0.2-0.4,0.5-0.7,0.7c-1.6,1.4-3.8,1.1-5.1-0.5c-1.4-1.7-1.2-4.4,0.5-5.8
		c1.8-1.6,4.4-1.1,5.5,1c0.2,0.4,0.3,0.9,0.5,1.3c0,0,0,0,0.1-0.1c1.4-2,4.3-2.1,5.9,0.1c1.2,1.6,1,4.1-0.4,5.5
		c-1.7,1.7-4.4,1.3-5.7-0.8c-0.2-0.4-0.3-0.8-0.5-1.3C26.8,11.9,26.8,11.9,26.8,11.8z"/>
	<path class="st0" d="M34,22.4c0.5-0.1,1-0.2,1.5-0.3c0.4-0.1,0.9-0.2,1.3-0.3c0.6-0.2,1.2-0.5,1.7-1c0,0.2,0,0.3,0,0.5
		c0,1.2,0,2.5,0,3.7c0,1.2-0.5,1.9-1.6,2.3c-3.1,1.1-6.3,2.1-9.5,3.2c-1.3,0.5-2.7-0.3-2.9-1.6c-0.2-1.1,0.4-2.1,1.4-2.5
		c1.4-0.5,2.9-1,4.3-1.5c1.2-0.4,2.5-0.9,3.7-1.3c0.2-0.1,0.2-0.1,0.2-0.3C34,23.1,34,22.7,34,22.4z"/>
</g>
</svg>
